<svg width="1600" height="900" viewBox="0 0 1600 900" fill="none" xmlns="http://www.w3.org/2000/svg">
  <defs>
    <linearGradient id="bg" x1="0" y1="0" x2="1600" y2="900" gradientUnits="userSpaceOnUse">
      <stop stop-color="#07111F"/>
      <stop offset="1" stop-color="#111827"/>
    </linearGradient>
    <linearGradient id="header" x1="0" y1="0" x2="1600" y2="0" gradientUnits="userSpaceOnUse">
      <stop stop-color="#132238"/>
      <stop offset="1" stop-color="#1D3557"/>
    </linearGradient>
    <linearGradient id="card" x1="0" y1="0" x2="1" y2="1">
      <stop stop-color="#1F2937"/>
      <stop offset="1" stop-color="#0F172A"/>
    </linearGradient>
    <filter id="shadow" x="-40" y="-40" width="1680" height="980" filterUnits="userSpaceOnUse" color-interpolation-filters="sRGB">
      <feFlood flood-opacity="0" result="BackgroundImageFix"/>
      <feColorMatrix in="SourceAlpha" type="matrix" values="0 0 0 0 0 0 0 0 0 0 0 0 0 0 0 0 0 0 127 0" result="hardAlpha"/>
      <feOffset dy="18"/>
      <feGaussianBlur stdDeviation="20"/>
      <feColorMatrix type="matrix" values="0 0 0 0 0.0117647 0 0 0 0 0.0627451 0 0 0 0 0.145098 0 0 0 0.45 0"/>
      <feBlend mode="normal" in2="BackgroundImageFix" result="effect1_dropShadow_1_1"/>
      <feBlend mode="normal" in="SourceGraphic" in2="effect1_dropShadow_1_1" result="shape"/>
    </filter>
  </defs>

  <rect width="1600" height="900" rx="28" fill="url(#bg)"/>
  <g filter="url(#shadow)">
    <rect x="32" y="32" width="1536" height="836" rx="24" fill="#0B1220" stroke="#22314C"/>
  </g>

  <rect x="52" y="52" width="1496" height="84" rx="18" fill="url(#header)"/>
  <text x="88" y="103" fill="#F8FAFC" font-size="28" font-family="Segoe UI, Arial, sans-serif" font-weight="700">
    ACM Board Frontend
  </text>
  <text x="1120" y="88" fill="#94A3B8" font-size="18" font-family="Segoe UI, Arial, sans-serif">
    Total Submissions
  </text>
  <text x="1120" y="116" fill="#F8FAFC" font-size="28" font-family="Consolas, monospace" font-weight="700">
    1234
  </text>
  <text x="1320" y="88" fill="#94A3B8" font-size="18" font-family="Segoe UI, Arial, sans-serif">
    Accepted
  </text>
  <text x="1320" y="116" fill="#22C55E" font-size="28" font-family="Consolas, monospace" font-weight="700">
    567
  </text>

  <rect x="52" y="154" width="320" height="612" rx="20" fill="url(#card)" stroke="#243244"/>
  <text x="82" y="194" fill="#F8FAFC" font-size="24" font-family="Segoe UI, Arial, sans-serif" font-weight="700">
    First Bloods
  </text>

  <rect x="396" y="154" width="862" height="612" rx="20" fill="url(#card)" stroke="#243244"/>
  <text x="426" y="194" fill="#F8FAFC" font-size="24" font-family="Segoe UI, Arial, sans-serif" font-weight="700">
    Live Submission Stream
  </text>

  <rect x="1282" y="154" width="266" height="612" rx="20" fill="url(#card)" stroke="#243244"/>
  <text x="1312" y="194" fill="#F8FAFC" font-size="24" font-family="Segoe UI, Arial, sans-serif" font-weight="700">
    Rank List
  </text>

  <rect x="52" y="786" width="1496" height="62" rx="16" fill="#0F172A" stroke="#243244"/>
  <text x="84" y="824" fill="#38BDF8" font-size="20" font-family="Segoe UI, Arial, sans-serif" font-weight="600">
    Rolling Ticker / Broadcast Area
  </text>

  <g>
    <rect x="74" y="224" width="276" height="70" rx="14" fill="#162133" stroke="#30435F"/>
    <rect x="74" y="308" width="276" height="70" rx="14" fill="#162133" stroke="#30435F"/>
    <rect x="74" y="392" width="276" height="70" rx="14" fill="#162133" stroke="#30435F"/>
    <text x="98" y="266" fill="#FACC15" font-size="18" font-family="Segoe UI, Arial, sans-serif" font-weight="700">A</text>
    <text x="136" y="266" fill="#F8FAFC" font-size="18" font-family="Segoe UI, Arial, sans-serif">Team Alpha</text>
    <text x="278" y="266" fill="#FACC15" font-size="16" font-family="Consolas, monospace">18:30:12</text>
  </g>

  <g>
    <rect x="426" y="234" width="802" height="88" rx="16" fill="#10241B" stroke="#1E8F5B"/>
    <rect x="426" y="338" width="802" height="88" rx="16" fill="#271C1C" stroke="#8F3B3B"/>
    <rect x="426" y="442" width="802" height="88" rx="16" fill="#172033" stroke="#31456A"/>
    <text x="460" y="286" fill="#22C55E" font-size="24" font-family="Consolas, monospace" font-weight="800">G</text>
    <text x="510" y="286" fill="#F8FAFC" font-size="20" font-family="Segoe UI, Arial, sans-serif">Huayiheng</text>
    <text x="1080" y="286" fill="#22C55E" font-size="18" font-family="Segoe UI, Arial, sans-serif" font-weight="700">AC</text>
    <text x="1130" y="286" fill="#94A3B8" font-size="16" font-family="Consolas, monospace">18:04:03</text>
  </g>

  <g>
    <rect x="1304" y="224" width="222" height="42" rx="12" fill="#3A2C10" stroke="#A16207"/>
    <rect x="1304" y="278" width="222" height="42" rx="12" fill="#1F2937" stroke="#475569"/>
    <rect x="1304" y="332" width="222" height="42" rx="12" fill="#31170E" stroke="#9A3412"/>
    <rect x="1304" y="386" width="222" height="42" rx="12" fill="#111827" stroke="#334155"/>
    <text x="1322" y="252" fill="#FACC15" font-size="16" font-family="Consolas, monospace" font-weight="700">#1</text>
    <text x="1370" y="252" fill="#F8FAFC" font-size="16" font-family="Segoe UI, Arial, sans-serif">Team Alpha</text>
  </g>
</svg>
