<svg xmlns="http://www.w3.org/2000/svg" viewBox="0 0 1366.3 194.71">
  <defs>
    <style>
      .st0 {
        fill: #005bac;
      }

      .st1 {
        fill: #00aa71;
      }

      .st2 {
        fill: #bbbbbb;
      }

      .st3 {
        fill: #ee7948;
      }

      .st4 {
        fill: #9c549d;
      }

      .st5 {
        fill: #06b4ea;
      }
    </style>
  </defs>
  <path class="st2" d="M990.01,1.89h5.51v190.93h-5.51V1.89Z"/>
  <path class="st0" d="M143.25,172.24h-38.94L37.1,72.24v100H0V26.63h48.41l57.76,83.4V26.63h37.08v145.61ZM279.03,123.87h-87.51c.63,8.73,4.12,15.32,10.65,19.86,6.59,4.62,16.26,6.91,28.92,6.91,8.08,0,15.9-1.42,23.46-4.14,7.56-2.73,13.51-5.61,17.96-8.83h4.18v28.3c-8.63,3.17-16.76,5.51-24.29,6.95-7.58,1.44-16.09,2.19-25.31,2.19-23.81,0-42.01-4.97-54.76-14.97-12.69-9.89-19.01-23.91-19.01-42.27s5.98-32.47,18-43.16c12.08-10.57,28.53-15.82,49.52-15.82,19.29,0,33.82,4.49,43.56,13.51,9.75,9.07,14.65,22.16,14.65,39.07v12.37l-.02.03ZM240.69,103.2c-.16-7.43-2.07-13.03-5.89-16.81-3.71-3.77-9.51-5.66-17.38-5.66-7.29,0-13.41,1.8-18.02,5.28-4.8,3.6-7.36,9.28-7.91,17.19h49.2ZM408.21,172.24h-38.25v-12.08c-6.97,5.01-13.41,8.81-19.25,11.33-5.85,2.61-12.74,3.86-20.81,3.86-13.06,0-23.1-3.51-30.19-10.43-6.99-6.97-10.51-17.3-10.51-30.95V62.32h38.27v54.54c0,5.6.13,10.17.56,13.89.38,3.69,1.3,6.69,2.62,9.2,1.3,2.41,3.35,4.2,6.02,5.27,2.72,1.12,6.55,1.69,11.28,1.69,3.27,0,6.73-.57,10.69-1.69,3.96-1.08,7.71-2.8,11.32-4.93V62.32h38.25v109.92h0ZM529.77,137.43c0,11.47-5.44,20.55-16.48,27.52-11.04,6.94-26.1,10.4-45.25,10.4-10.65,0-20.2-.89-28.74-2.69-8.67-1.83-15.58-3.82-20.82-6.12v-28.85h3.5c1.89,1.23,4.13,2.53,6.67,4.01,2.51,1.48,5.96,2.97,10.66,4.66,3.96,1.56,8.41,2.77,13.49,3.81,5.04,1.13,10.35,1.64,16.12,1.64,7.51,0,13.03-.76,16.63-2.23,3.61-1.61,5.4-3.8,5.4-6.74,0-2.7-1.03-4.69-3.12-5.81-2.16-1.23-6.16-2.38-12.04-3.55-2.9-.56-6.72-1.22-11.56-1.86-4.9-.74-9.29-1.58-13.27-2.55-10.78-2.46-18.78-6.61-24.03-12.17-5.2-5.51-7.88-12.36-7.88-20.51,0-10.59,5.4-19.48,16.22-26.38,10.89-7.06,25.64-10.51,44.39-10.51,8.96,0,17.4.83,25.64,2.46,8.05,1.73,14.5,3.43,19.04,5.35v27.86h-3.23c-5.8-3.59-12.16-6.51-19.4-8.68-7.25-2.36-14.58-3.45-21.98-3.45-6.16,0-11.28.74-15.51,2.33-4.17,1.52-6.38,3.81-6.38,6.61,0,2.62,1.01,4.48,2.88,5.9,1.9,1.43,6.45,2.78,13.55,4.06,3.86.8,8.04,1.55,12.5,2.19,4.57.65,9,1.52,13.55,2.59,10.01,2.45,17.46,6.15,22.19,11.43,4.9,5.17,7.26,11.54,7.26,19.3M667.69,117.32c0,18.11-5.66,32.31-17.14,42.81-11.32,10.35-27.42,15.51-48.01,15.51s-36.58-5.16-48.04-15.51c-11.38-10.5-17.07-24.7-17.07-42.81s5.69-32.49,17.18-42.89c11.44-10.37,27.43-15.52,47.92-15.52s36.77,5.15,48.17,15.66c11.32,10.35,16.98,24.71,16.98,42.75M620.8,144.15c2.5-2.82,4.36-6.22,5.67-10.19,1.14-3.94,1.82-9.43,1.82-16.45,0-6.5-.68-11.9-1.9-16.26-1.36-4.47-3.09-7.96-5.36-10.66-2.22-2.62-5-4.53-8.14-5.67-3.2-1.04-6.67-1.63-10.36-1.63s-6.93.46-9.88,1.37c-2.86.91-5.66,2.78-8.21,5.5-2.29,2.63-4.2,6.12-5.59,10.58-1.38,4.39-2.03,9.99-2.03,16.76,0,6,.59,11.24,1.83,15.69,1.17,4.38,2.93,7.9,5.3,10.59,2.26,2.56,4.91,4.5,8.08,5.65,3.15,1.21,6.84,1.84,10.79,1.84,3.47,0,6.8-.63,9.92-1.65,3.2-1.17,5.88-2.88,8.05-5.48M726.2,62.12h44.69v-16.13l34.94-15.11h3.6v31.25h35.32v24.27h-35.26v49.4s-.29,15.08,16.39,14.36c0,0,7.55.49,15.15-3.13h3.85v23.8s-21.03,6.57-48.15,1.48c0,0-17.53-2.63-23.11-17.9,0,0-2.65-6.45-2.73-14.7v-53.56h-43.57v85.92h-38.56v-85.92h-16.22v-23.91h16.51s-2.02-23.59,13.33-34.31c0,0,17.04-14.22,60.83-6.64v24.73h-3.11s-26.33-7.98-32.55,4.36c0,0-2.12,5.49-1.35,11.73"/>
  <g>
    <g>
      <g>
        <path class="st0" d="M1141.47,128.02c-.32,0-.58-.26-.58-.58v-2.22c0-.32.26-.53.58-.53h3.91v-14.38l-3.83,1.17c-.15.06-.26.06-.35.06-.2,0-.32-.09-.32-.35v-2.75c0-.18.06-.26.2-.32l5.17-1.69c.18-.06.35-.12.67-.12h1.93c.32,0,.56.23.56.56v17.83h3.92c.32,0,.58.21.58.53v2.22c0,.32-.26.58-.58.58h-11.87,0Z"/>
        <path class="st0" d="M1164.66,128.25c-2.54,0-4.44-.35-5.41-.56-.41-.09-.67-.23-.67-.61v-1.81c0-.41.24-.61.56-.61h.12c1.11.18,3.65.38,5.41.38,2.95,0,4.03-1.32,4.12-5.32-.93.17-2.48.32-4.06.32-3.8,0-7.16-1.64-7.16-6.43v-.29c0-4.33,2.72-7.25,7.54-7.25,4.36,0,7.66,2.69,7.66,9.03v3.36c0,7.04-2.75,9.79-8.1,9.79h-.01ZM1168.78,115.1c0-4.88-1.55-5.87-3.68-5.87-1.99,0-3.57.88-3.57,4.09v.29c0,2.75,1.87,3.48,4,3.48.85,0,2.37-.15,3.24-.32v-1.67h.01Z"/>
        <path class="st0" d="M1183.08,128.25c-2.54,0-4.44-.35-5.41-.56-.41-.09-.67-.23-.67-.61v-1.81c0-.41.23-.61.56-.61h.12c1.11.18,3.65.38,5.41.38,2.95,0,4.03-1.32,4.12-5.32-.94.17-2.48.32-4.06.32-3.8,0-7.16-1.64-7.16-6.43v-.29c0-4.33,2.72-7.25,7.54-7.25,4.36,0,7.66,2.69,7.66,9.03v3.36c0,7.04-2.75,9.79-8.1,9.79h-.01ZM1187.2,115.1c0-4.88-1.55-5.87-3.68-5.87-1.99,0-3.57.88-3.57,4.09v.29c0,2.75,1.87,3.48,4,3.48.85,0,2.37-.15,3.25-.32v-1.67Z"/>
        <path class="st0" d="M1196.74,128.02c-.32,0-.58-.26-.58-.58v-2.22c0-.32.26-.53.58-.53h3.91v-14.38l-3.83,1.17c-.15.06-.26.06-.35.06-.2,0-.32-.09-.32-.35v-2.75c0-.18.06-.26.2-.32l5.17-1.69c.18-.06.35-.12.67-.12h1.93c.32,0,.56.23.56.56v17.83h3.92c.32,0,.58.21.58.53v2.22c0,.32-.26.58-.58.58h-11.87,0Z"/>
        <path class="st0" d="M1218.96,120.48h-5.73c-.32,0-.58-.2-.58-.53v-1.84c0-.32.26-.56.58-.56h5.73c.32,0,.56.23.56.56v1.84c0,.32-.24.53-.56.53Z"/>
        <path class="st0" d="M1233.29,117.09l-2.63,1.75c-2.75,1.84-4.15,3.3-4.15,5.73v.12h9.62c.32,0,.58.21.58.53v2.22c0,.32-.26.58-.58.58h-12.39c-.32,0-.58-.26-.58-.58v-2.86c0-3.22,2.02-6.05,4.44-7.66l2.89-1.93c2.25-1.49,2.69-1.96,2.69-3.57s-.99-2.16-3.42-2.16c-1.72,0-4.09.24-5.84.44h-.06c-.32,0-.53-.26-.53-.58v-1.75c0-.29.26-.47.56-.56,1.52-.41,3.97-.73,5.87-.73,5.11,0,7.19,1.72,7.19,5.35,0,2.43-1.26,4.06-3.65,5.67h0Z"/>
        <path class="st0" d="M1248.41,128.25c-4.73,0-7.63-2.72-7.63-9.99v-2.16c0-7.28,2.89-10.02,7.63-10.02s7.63,2.75,7.63,10.02v2.16c0,7.28-2.89,9.99-7.63,9.99h0ZM1251.98,116.09c0-5.29-1.55-6.72-3.57-6.72s-3.57,1.43-3.57,6.72v2.16c0,5.29,1.55,6.69,3.57,6.69s3.57-1.4,3.57-6.69v-2.16Z"/>
        <path class="st0" d="M1270.13,117.09l-2.63,1.75c-2.75,1.84-4.15,3.3-4.15,5.73v.12h9.62c.32,0,.58.21.58.53v2.22c0,.32-.26.58-.58.58h-12.39c-.32,0-.58-.26-.58-.58v-2.86c0-3.22,2.02-6.05,4.44-7.66l2.89-1.93c2.25-1.49,2.69-1.96,2.69-3.57s-.99-2.16-3.42-2.16c-1.72,0-4.09.24-5.84.44h-.06c-.32,0-.53-.26-.53-.58v-1.75c0-.29.26-.47.56-.56,1.52-.41,3.98-.73,5.87-.73,5.12,0,7.19,1.72,7.19,5.35,0,2.43-1.26,4.06-3.65,5.67h0Z"/>
        <path class="st0" d="M1285.46,128.25c-4.36,0-7.66-2.69-7.66-9.03v-3.36c0-7.04,2.75-9.79,8.1-9.79,2.54,0,4.44.35,5.41.56.41.09.67.23.67.61v1.81c0,.41-.24.61-.56.61h-.12c-1.11-.18-3.65-.38-5.41-.38-2.95,0-4.03,1.32-4.12,5.32.94-.18,2.48-.32,4.06-.32,3.8,0,7.16,1.64,7.16,6.43v.29c0,4.33-2.72,7.25-7.54,7.25h.01ZM1289.03,120.71c0-2.75-1.87-3.48-4-3.48-.85,0-2.37.15-3.25.32v1.67c0,4.88,1.55,5.87,3.68,5.87,1.99,0,3.57-.88,3.57-4.09v-.29Z"/>
      </g>
      <g>
        <path class="st0" d="M1152.91,95.68h-2.35c-.56,0-1.05,0-1.42-.84l-5.17-11.33c-.07-.14-.14-.19-.21-.19s-.12.05-.12.19v11.71c0,.26-.19.47-.44.47h-1.98c-.25,0-.46-.21-.46-.47v-15.89c0-.51.42-.93.93-.93h2.51c.49,0,.74.14,1.03.74l5.42,11.96c.05.12.12.19.19.19.05,0,.12-.07.12-.21v-12.24c0-.25.19-.44.44-.44h2c.26,0,.44.19.44.44v15.92c0,.51-.42.93-.93.93h0Z"/>
        <path class="st0" d="M1167.35,90.19h-7.59v.07c0,1.35.56,2.95,2.79,2.95,1.7,0,3.3-.14,4.28-.23h.07c.23,0,.42.12.42.35v1.54c0,.37-.07.54-.49.6-1.51.28-2.42.4-4.51.4-2.33,0-5.63-1.26-5.63-5.84v-1.72c0-3.63,2.02-5.91,5.58-5.91s5.54,2.44,5.54,5.91v1.3c0,.37-.14.58-.46.58h0ZM1164.72,87.91c0-1.82-1-2.86-2.44-2.86s-2.49,1.02-2.49,2.86v.09h4.93v-.09h0Z"/>
        <path class="st0" d="M1180.72,95.68h-2.14c-.26,0-.47-.21-.47-.47v-.54c-1.21.79-2.16,1.16-3.65,1.16-1.16,0-2.19-.3-2.86-.98-.86-.86-1.16-2.31-1.16-4.24v-7.58c0-.26.21-.49.46-.49h2.14c.26,0,.47.23.47.49v7.58c0,1.17.09,1.84.54,2.23.33.28.72.42,1.44.42.86,0,1.98-.58,2.63-.93v-9.31c0-.26.21-.49.47-.49h2.14c.25,0,.46.23.46.49v12.17c0,.26-.21.47-.46.47v.02Z"/>
        <path class="st0" d="M1188.46,95.87c-.91,0-2.86-.12-4.16-.46-.28-.07-.44-.26-.44-.54v-1.4c0-.19.16-.37.4-.37h.09c1.12.14,3.21.26,3.91.26,1.44,0,1.65-.49,1.65-1.12,0-.44-.28-.72-1.02-1.19l-3.19-1.96c-1.14-.7-1.96-1.86-1.96-3.21,0-2.33,1.47-3.49,4.42-3.49,1.89,0,2.96.21,4.14.47.28.07.42.25.42.54v1.35c0,.28-.14.44-.37.44h-.09c-.65-.09-2.51-.28-3.84-.28-1.12,0-1.61.26-1.61.98,0,.37.35.6.93.95l3.05,1.86c1.95,1.19,2.23,2.35,2.23,3.54,0,2.02-1.51,3.63-4.56,3.63h0Z"/>
        <path class="st0" d="M1200.75,95.87c-3.65,0-5.56-2.47-5.56-5.79v-1.89c0-3.33,1.91-5.79,5.56-5.79s5.56,2.47,5.56,5.79v1.89c0,3.33-1.91,5.79-5.56,5.79ZM1203.24,88.19c0-1.91-.86-3.14-2.49-3.14s-2.49,1.23-2.49,3.14v1.89c0,1.91.86,3.14,2.49,3.14s2.49-1.23,2.49-3.14v-1.89Z"/>
        <path class="st0" d="M1215.33,80.02h-1.05c-1.12,0-1.37.26-1.37,1.4v1.14h2.23c.26,0,.47.21.47.47v1.4c0,.25-.21.44-.47.44h-2.23v10.33c0,.25-.21.49-.46.49h-2.12c-.26,0-.49-.23-.49-.49v-10.33l-2.07-.33c-.26-.05-.47-.19-.47-.44v-1.07c0-.26.21-.47.47-.47h2.07v-1.14c0-3,1.61-3.72,4.03-3.72.56,0,.95.09,1.4.19.19.05.42.16.42.37v1.37c0,.28-.19.4-.35.4h-.01Z"/>
        <path class="st0" d="M1224.54,95.71c-.56.09-1.07.16-1.58.16-2.63,0-3.7-.58-3.7-3.7v-7.31l-2.19-.33c-.25-.05-.46-.21-.46-.47v-1.05c0-.26.21-.47.46-.47h2.19v-1.91c0-.25.21-.42.47-.46l2.16-.37h.09c.21,0,.37.12.37.35v2.4h2.09c.26,0,.47.21.47.47v1.37c0,.26-.21.47-.47.47h-2.09v7.31c0,1.16.07,1.3.91,1.3h1.23c.3,0,.49.12.49.35v1.47c0,.23-.14.37-.44.42h0Z"/>
      </g>
    </g>
    <path class="st3" d="M1277.59,52.15l8.22-14.24h-.04l20.58-35.55h-27.5l-20.58,35.41c7.1,3.89,13.59,8.75,19.33,14.37h0Z"/>
    <path class="st0" d="M1226.18,61.06v-.02l34.09-58.68h-87.44v22.86h48.25l-20.98,37.38c5.11-1.59,10.54-2.44,16.18-2.44,3.36,0,6.65.32,9.84.9h.07-.01Z"/>
    <polygon class="st1" points="1351.26 25.23 1351.26 2.36 1318.01 2.36 1304.81 25.23 1351.26 25.23"/>
    <path class="st4" d="M1247.84,43.9l-11.61,19.98c9.41,3.92,17.53,10.31,23.54,18.38h26.88c-7.86-17.01-21.7-30.69-38.81-38.36Z"/>
    <path class="st5" d="M1297.28,38.27l-12.57,21.77c.19.24.39.49.58.73,1.24-.09,2.49-.17,3.76-.17,30.09,0,54.48,24.39,54.48,54.48s-24.39,54.48-54.48,54.48c-1.49,0-2.97-.09-4.43-.21-5.86,7.31-12.87,13.65-20.75,18.77,7.89,2.72,16.35,4.22,25.17,4.22,42.67,0,77.26-34.59,77.26-77.26,0-39.89-30.23-72.71-69.03-76.82h.01Z"/>
    <g>
      <path class="st0" d="M1216.09,166.16h.13c20.03,0,37.38-11.38,45.99-28.02h-6.49c-8.08,13.38-22.76,22.36-39.5,22.36h-.12v5.66h-.01Z"/>
      <path class="st0" d="M1284.35,138.15c-9.84,28.16-36.66,48.42-68.13,48.42s-58.29-20.26-68.13-48.42h-5.99c10.04,31.37,39.43,54.08,74.13,54.08s64.09-22.71,74.13-54.08h-6.01Z"/>
      <path class="st0" d="M1270.56,138.15c-9.18,20.92-30.07,35.57-54.34,35.57-13.64,0-26.2-4.66-36.23-12.44l-2.86,4.95c10.88,8.23,24.39,13.15,39.09,13.15,27.5,0,51-17.1,60.48-41.23h-6.14Z"/>
    </g>
  </g>
</svg>